<mxfile host="Electron" modified="2024-03-04T13:49:29.544Z" agent="Mozilla/5.0 (Macintosh; Intel Mac OS X 10_15_7) AppleWebKit/537.36 (KHTML, like Gecko) draw.io/23.1.5 Chrome/120.0.6099.109 Electron/28.1.0 Safari/537.36" etag="V3QjbLVkmGpyFKDOgJTp" version="23.1.5" type="device">
  <diagram name="Page-1" id="NZemP3d_rDTrkLVa0RIV">
    <mxGraphModel dx="2234" dy="854" grid="1" gridSize="10" guides="1" tooltips="1" connect="1" arrows="1" fold="1" page="0" pageScale="1" pageWidth="827" pageHeight="1169" math="0" shadow="0">
      <root>
        <mxCell id="0" />
        <mxCell id="1" parent="0" />
        <mxCell id="M-Up_q8v9yrKKLwg8taz-5" value="" style="rounded=0;whiteSpace=wrap;html=1;fillColor=none;strokeWidth=3;strokeColor=#000000;" parent="1" vertex="1">
          <mxGeometry x="-480" y="40" width="1480" height="960" as="geometry" />
        </mxCell>
        <mxCell id="M-Up_q8v9yrKKLwg8taz-1" value="" style="rounded=0;whiteSpace=wrap;html=1;fillColor=none;strokeWidth=3;dashed=1;strokeColor=#3d9bff;" parent="1" vertex="1">
          <mxGeometry x="40" y="160" width="920" height="800" as="geometry" />
        </mxCell>
        <mxCell id="M-Up_q8v9yrKKLwg8taz-2" value="" style="rounded=0;whiteSpace=wrap;html=1;fillColor=none;strokeWidth=3;dashed=1;strokeColor=#3d9bff;" parent="1" vertex="1">
          <mxGeometry x="-440" y="160" width="440" height="800" as="geometry" />
        </mxCell>
        <mxCell id="M-Up_q8v9yrKKLwg8taz-3" value="Client Applications" style="text;html=1;align=center;verticalAlign=middle;whiteSpace=wrap;rounded=0;fontSize=16;fontColor=#3D9BFF;fontStyle=1" parent="1" vertex="1">
          <mxGeometry x="-310" y="170" width="180" height="30" as="geometry" />
        </mxCell>
        <mxCell id="M-Up_q8v9yrKKLwg8taz-4" value="Rescue Command Center" style="text;html=1;align=center;verticalAlign=middle;whiteSpace=wrap;rounded=0;fontSize=40;fontColor=#000000;" parent="1" vertex="1">
          <mxGeometry y="60" width="520" height="30" as="geometry" />
        </mxCell>
        <mxCell id="M-Up_q8v9yrKKLwg8taz-6" value="&lt;font style=&quot;font-size: 25px;&quot;&gt;Development environment architecture&lt;/font&gt;" style="text;html=1;align=center;verticalAlign=middle;whiteSpace=wrap;rounded=0;fontSize=40;fontColor=#000000;" parent="1" vertex="1">
          <mxGeometry y="100" width="520" height="30" as="geometry" />
        </mxCell>
        <mxCell id="M-Up_q8v9yrKKLwg8taz-7" value="" style="rounded=1;whiteSpace=wrap;html=1;fillColor=none;strokeWidth=2;dashed=1;" parent="1" vertex="1">
          <mxGeometry x="81" y="457.5" width="210" height="185" as="geometry" />
        </mxCell>
        <mxCell id="M-Up_q8v9yrKKLwg8taz-10" value="" style="rounded=1;whiteSpace=wrap;html=1;fillColor=none;strokeWidth=2;dashed=1;" parent="1" vertex="1">
          <mxGeometry x="-340" y="308" width="240" height="190" as="geometry" />
        </mxCell>
        <mxCell id="M-Up_q8v9yrKKLwg8taz-11" value="Rescue Command Center" style="text;html=1;align=center;verticalAlign=middle;whiteSpace=wrap;rounded=0;fontStyle=1;fontSize=14;" parent="1" vertex="1">
          <mxGeometry x="-316.87" y="308" width="193.75" height="30" as="geometry" />
        </mxCell>
        <mxCell id="M-Up_q8v9yrKKLwg8taz-12" value="Web application" style="text;html=1;align=center;verticalAlign=middle;whiteSpace=wrap;rounded=0;fontStyle=1;fontSize=14;" parent="1" vertex="1">
          <mxGeometry x="-293.75" y="333" width="147.5" height="30" as="geometry" />
        </mxCell>
        <mxCell id="M-Up_q8v9yrKKLwg8taz-13" value="API&lt;br&gt;Gateway" style="text;html=1;align=center;verticalAlign=middle;whiteSpace=wrap;rounded=0;fontStyle=1;fontSize=14;" parent="1" vertex="1">
          <mxGeometry x="146" y="482.5" width="80" height="30" as="geometry" />
        </mxCell>
        <mxCell id="M-Up_q8v9yrKKLwg8taz-14" value="Backend Applications" style="text;html=1;align=center;verticalAlign=middle;whiteSpace=wrap;rounded=0;fontSize=16;fontColor=#3D9BFF;fontStyle=1" parent="1" vertex="1">
          <mxGeometry x="370" y="170" width="180" height="30" as="geometry" />
        </mxCell>
        <mxCell id="M-Up_q8v9yrKKLwg8taz-15" value="" style="rounded=1;whiteSpace=wrap;html=1;fillColor=none;strokeWidth=2;dashed=1;" parent="1" vertex="1">
          <mxGeometry x="-340" y="560" width="240" height="180" as="geometry" />
        </mxCell>
        <mxCell id="M-Up_q8v9yrKKLwg8taz-16" value="Rescue Command Center" style="text;html=1;align=center;verticalAlign=middle;whiteSpace=wrap;rounded=0;fontStyle=1;fontSize=14;" parent="1" vertex="1">
          <mxGeometry x="-306.87" y="560" width="173.75" height="30" as="geometry" />
        </mxCell>
        <mxCell id="M-Up_q8v9yrKKLwg8taz-17" value="Mobile application" style="text;html=1;align=center;verticalAlign=middle;whiteSpace=wrap;rounded=0;fontStyle=1;fontSize=14;" parent="1" vertex="1">
          <mxGeometry x="-293.75" y="585" width="147.5" height="30" as="geometry" />
        </mxCell>
        <mxCell id="M-Up_q8v9yrKKLwg8taz-19" value="" style="shape=process;whiteSpace=wrap;html=1;backgroundOutline=1;fillColor=#e1d5e7;strokeColor=#9673a6;" parent="1" vertex="1">
          <mxGeometry x="126" y="537.5" width="120" height="50" as="geometry" />
        </mxCell>
        <mxCell id="M-Up_q8v9yrKKLwg8taz-20" value="" style="shape=hexagon;perimeter=hexagonPerimeter2;whiteSpace=wrap;html=1;fixedSize=1;fillColor=#e1d5e7;strokeColor=#9673a6;" parent="1" vertex="1">
          <mxGeometry x="156" y="537.5" width="60" height="50" as="geometry" />
        </mxCell>
        <mxCell id="M-Up_q8v9yrKKLwg8taz-30" value="" style="rounded=0;whiteSpace=wrap;html=1;fillColor=#B5B5B5;strokeColor=none;" parent="1" vertex="1">
          <mxGeometry x="101" y="492.5" width="10" height="120" as="geometry" />
        </mxCell>
        <mxCell id="M-Up_q8v9yrKKLwg8taz-31" value="" style="endArrow=classic;html=1;rounded=0;strokeWidth=2;exitX=1;exitY=0.5;exitDx=0;exitDy=0;entryX=0;entryY=0.5;entryDx=0;entryDy=0;" parent="1" source="M-Up_q8v9yrKKLwg8taz-10" edge="1" target="M-Up_q8v9yrKKLwg8taz-7">
          <mxGeometry width="50" height="50" relative="1" as="geometry">
            <mxPoint x="215" y="335" as="sourcePoint" />
            <mxPoint x="100" y="335" as="targetPoint" />
            <Array as="points">
              <mxPoint x="20" y="403" />
              <mxPoint x="20" y="550" />
            </Array>
          </mxGeometry>
        </mxCell>
        <mxCell id="M-Up_q8v9yrKKLwg8taz-33" value="" style="rounded=1;whiteSpace=wrap;html=1;fillColor=none;strokeWidth=2;dashed=1;" parent="1" vertex="1">
          <mxGeometry x="350" y="215" width="210" height="315" as="geometry" />
        </mxCell>
        <mxCell id="M-Up_q8v9yrKKLwg8taz-34" value="" style="shape=datastore;whiteSpace=wrap;html=1;fillColor=#fff2cc;strokeColor=#d6b656;" parent="1" vertex="1">
          <mxGeometry x="445" y="417" width="60" height="70" as="geometry" />
        </mxCell>
        <mxCell id="M-Up_q8v9yrKKLwg8taz-35" value="User Management&lt;br style=&quot;font-size: 14px;&quot;&gt;Microservice" style="text;html=1;align=center;verticalAlign=middle;whiteSpace=wrap;rounded=0;fontStyle=1;fontSize=14;" parent="1" vertex="1">
          <mxGeometry x="404.5" y="235" width="141" height="30" as="geometry" />
        </mxCell>
        <mxCell id="M-Up_q8v9yrKKLwg8taz-36" value="" style="shape=process;whiteSpace=wrap;html=1;backgroundOutline=1;fillColor=#fff2cc;strokeColor=#d6b656;" parent="1" vertex="1">
          <mxGeometry x="415" y="287" width="120" height="50" as="geometry" />
        </mxCell>
        <mxCell id="M-Up_q8v9yrKKLwg8taz-37" value="" style="shape=hexagon;perimeter=hexagonPerimeter2;whiteSpace=wrap;html=1;fixedSize=1;fillColor=#fff2cc;strokeColor=#d6b656;" parent="1" vertex="1">
          <mxGeometry x="445" y="287" width="60" height="50" as="geometry" />
        </mxCell>
        <mxCell id="M-Up_q8v9yrKKLwg8taz-38" value="" style="endArrow=classic;html=1;rounded=0;strokeWidth=2;fillColor=#fff2cc;strokeColor=#d6b656;exitX=0.5;exitY=1;exitDx=0;exitDy=0;entryX=0.5;entryY=0;entryDx=0;entryDy=0;" parent="1" source="M-Up_q8v9yrKKLwg8taz-37" target="M-Up_q8v9yrKKLwg8taz-34" edge="1">
          <mxGeometry width="50" height="50" relative="1" as="geometry">
            <mxPoint x="620" y="417" as="sourcePoint" />
            <mxPoint x="670" y="367" as="targetPoint" />
          </mxGeometry>
        </mxCell>
        <mxCell id="M-Up_q8v9yrKKLwg8taz-39" value="" style="rounded=0;whiteSpace=wrap;html=1;fillColor=#B5B5B5;strokeColor=none;" parent="1" vertex="1">
          <mxGeometry x="370" y="250" width="10" height="250" as="geometry" />
        </mxCell>
        <mxCell id="M-Up_q8v9yrKKLwg8taz-40" value="" style="endArrow=classic;html=1;rounded=0;strokeWidth=2;exitX=1.105;exitY=0.198;exitDx=0;exitDy=0;entryX=0;entryY=0.25;entryDx=0;entryDy=0;exitPerimeter=0;" parent="1" source="M-Up_q8v9yrKKLwg8taz-39" target="M-Up_q8v9yrKKLwg8taz-36" edge="1">
          <mxGeometry width="50" height="50" relative="1" as="geometry">
            <mxPoint x="295" y="345" as="sourcePoint" />
            <mxPoint x="381" y="346" as="targetPoint" />
          </mxGeometry>
        </mxCell>
        <mxCell id="M-Up_q8v9yrKKLwg8taz-44" value="" style="rounded=1;whiteSpace=wrap;html=1;fillColor=none;strokeWidth=2;dashed=1;" parent="1" vertex="1">
          <mxGeometry x="680" y="215" width="210" height="315" as="geometry" />
        </mxCell>
        <mxCell id="M-Up_q8v9yrKKLwg8taz-45" value="" style="shape=datastore;whiteSpace=wrap;html=1;fillColor=#dae8fc;strokeColor=#6c8ebf;" parent="1" vertex="1">
          <mxGeometry x="775" y="417" width="60" height="70" as="geometry" />
        </mxCell>
        <mxCell id="M-Up_q8v9yrKKLwg8taz-46" value="Car Management&lt;br style=&quot;font-size: 14px;&quot;&gt;Microservice" style="text;html=1;align=center;verticalAlign=middle;whiteSpace=wrap;rounded=0;fontStyle=1;fontSize=14;" parent="1" vertex="1">
          <mxGeometry x="734.5" y="235" width="141" height="30" as="geometry" />
        </mxCell>
        <mxCell id="M-Up_q8v9yrKKLwg8taz-47" value="" style="shape=process;whiteSpace=wrap;html=1;backgroundOutline=1;fillColor=#dae8fc;strokeColor=#6c8ebf;" parent="1" vertex="1">
          <mxGeometry x="745" y="287" width="120" height="50" as="geometry" />
        </mxCell>
        <mxCell id="M-Up_q8v9yrKKLwg8taz-48" value="" style="shape=hexagon;perimeter=hexagonPerimeter2;whiteSpace=wrap;html=1;fixedSize=1;fillColor=#dae8fc;strokeColor=#6c8ebf;" parent="1" vertex="1">
          <mxGeometry x="775" y="287" width="60" height="50" as="geometry" />
        </mxCell>
        <mxCell id="M-Up_q8v9yrKKLwg8taz-49" value="" style="endArrow=classic;html=1;rounded=0;strokeWidth=2;fillColor=#dae8fc;strokeColor=#6c8ebf;exitX=0.5;exitY=1;exitDx=0;exitDy=0;entryX=0.5;entryY=0;entryDx=0;entryDy=0;" parent="1" source="M-Up_q8v9yrKKLwg8taz-48" target="M-Up_q8v9yrKKLwg8taz-45" edge="1">
          <mxGeometry width="50" height="50" relative="1" as="geometry">
            <mxPoint x="950" y="417" as="sourcePoint" />
            <mxPoint x="1000" y="367" as="targetPoint" />
          </mxGeometry>
        </mxCell>
        <mxCell id="M-Up_q8v9yrKKLwg8taz-50" value="" style="rounded=0;whiteSpace=wrap;html=1;fillColor=#B5B5B5;strokeColor=none;" parent="1" vertex="1">
          <mxGeometry x="700" y="250" width="10" height="250" as="geometry" />
        </mxCell>
        <mxCell id="M-Up_q8v9yrKKLwg8taz-51" value="" style="endArrow=classic;html=1;rounded=0;strokeWidth=2;exitX=1.105;exitY=0.198;exitDx=0;exitDy=0;entryX=0;entryY=0.25;entryDx=0;entryDy=0;exitPerimeter=0;" parent="1" source="M-Up_q8v9yrKKLwg8taz-50" target="M-Up_q8v9yrKKLwg8taz-47" edge="1">
          <mxGeometry width="50" height="50" relative="1" as="geometry">
            <mxPoint x="615" y="110" as="sourcePoint" />
            <mxPoint x="701" y="111" as="targetPoint" />
          </mxGeometry>
        </mxCell>
        <mxCell id="M-Up_q8v9yrKKLwg8taz-52" value="" style="rounded=0;whiteSpace=wrap;html=1;fillColor=#B5B5B5;strokeColor=none;" parent="1" vertex="1">
          <mxGeometry x="315" y="250" width="10" height="670" as="geometry" />
        </mxCell>
        <mxCell id="M-Up_q8v9yrKKLwg8taz-54" value="" style="html=1;verticalLabelPosition=bottom;align=center;labelBackgroundColor=#ffffff;verticalAlign=top;strokeWidth=2;strokeColor=#0080F0;shadow=0;dashed=0;shape=mxgraph.ios7.icons.smartphone;" parent="1" vertex="1">
          <mxGeometry x="-240" y="642.5" width="40" height="75" as="geometry" />
        </mxCell>
        <mxCell id="M-Up_q8v9yrKKLwg8taz-55" value="" style="endArrow=classic;html=1;rounded=0;strokeWidth=2;exitX=1;exitY=0.5;exitDx=0;exitDy=0;entryX=0;entryY=0.5;entryDx=0;entryDy=0;" parent="1" edge="1" target="M-Up_q8v9yrKKLwg8taz-7" source="M-Up_q8v9yrKKLwg8taz-15">
          <mxGeometry width="50" height="50" relative="1" as="geometry">
            <mxPoint x="-100" y="660" as="sourcePoint" />
            <mxPoint x="100" y="660" as="targetPoint" />
            <Array as="points">
              <mxPoint x="20" y="650" />
              <mxPoint x="20" y="550" />
            </Array>
          </mxGeometry>
        </mxCell>
        <mxCell id="M-Up_q8v9yrKKLwg8taz-57" value="" style="endArrow=classic;html=1;rounded=0;strokeWidth=2;exitX=1.046;exitY=0.147;exitDx=0;exitDy=0;exitPerimeter=0;" parent="1" source="M-Up_q8v9yrKKLwg8taz-52" edge="1">
          <mxGeometry width="50" height="50" relative="1" as="geometry">
            <mxPoint x="330" y="360" as="sourcePoint" />
            <mxPoint x="370" y="348" as="targetPoint" />
          </mxGeometry>
        </mxCell>
        <mxCell id="M-Up_q8v9yrKKLwg8taz-65" value="" style="rounded=1;whiteSpace=wrap;html=1;fillColor=none;strokeWidth=2;dashed=1;" parent="1" vertex="1">
          <mxGeometry x="680" y="602.5" width="210" height="315" as="geometry" />
        </mxCell>
        <mxCell id="M-Up_q8v9yrKKLwg8taz-66" value="" style="shape=datastore;whiteSpace=wrap;html=1;fillColor=#d5e8d4;strokeColor=#82b366;" parent="1" vertex="1">
          <mxGeometry x="775" y="804.5" width="60" height="70" as="geometry" />
        </mxCell>
        <mxCell id="M-Up_q8v9yrKKLwg8taz-67" value="Emergency Call System&lt;br style=&quot;font-size: 14px;&quot;&gt;Microservice" style="text;html=1;align=center;verticalAlign=middle;whiteSpace=wrap;rounded=0;fontStyle=1;fontSize=14;" parent="1" vertex="1">
          <mxGeometry x="714.5" y="622.5" width="160.5" height="30" as="geometry" />
        </mxCell>
        <mxCell id="M-Up_q8v9yrKKLwg8taz-68" value="" style="shape=process;whiteSpace=wrap;html=1;backgroundOutline=1;fillColor=#d5e8d4;strokeColor=#82b366;" parent="1" vertex="1">
          <mxGeometry x="745" y="674.5" width="120" height="50" as="geometry" />
        </mxCell>
        <mxCell id="M-Up_q8v9yrKKLwg8taz-69" value="" style="shape=hexagon;perimeter=hexagonPerimeter2;whiteSpace=wrap;html=1;fixedSize=1;fillColor=#d5e8d4;strokeColor=#82b366;" parent="1" vertex="1">
          <mxGeometry x="775" y="674.5" width="60" height="50" as="geometry" />
        </mxCell>
        <mxCell id="M-Up_q8v9yrKKLwg8taz-70" value="" style="endArrow=classic;html=1;rounded=0;strokeWidth=2;fillColor=#d5e8d4;strokeColor=#82b366;exitX=0.5;exitY=1;exitDx=0;exitDy=0;entryX=0.5;entryY=0;entryDx=0;entryDy=0;" parent="1" source="M-Up_q8v9yrKKLwg8taz-69" target="M-Up_q8v9yrKKLwg8taz-66" edge="1">
          <mxGeometry width="50" height="50" relative="1" as="geometry">
            <mxPoint x="950" y="804.5" as="sourcePoint" />
            <mxPoint x="1000" y="754.5" as="targetPoint" />
          </mxGeometry>
        </mxCell>
        <mxCell id="M-Up_q8v9yrKKLwg8taz-71" value="" style="rounded=0;whiteSpace=wrap;html=1;fillColor=#B5B5B5;strokeColor=none;" parent="1" vertex="1">
          <mxGeometry x="700" y="637.5" width="10" height="250" as="geometry" />
        </mxCell>
        <mxCell id="M-Up_q8v9yrKKLwg8taz-72" value="" style="endArrow=classic;html=1;rounded=0;strokeWidth=2;exitX=1.105;exitY=0.198;exitDx=0;exitDy=0;entryX=0;entryY=0.25;entryDx=0;entryDy=0;exitPerimeter=0;" parent="1" source="M-Up_q8v9yrKKLwg8taz-71" target="M-Up_q8v9yrKKLwg8taz-68" edge="1">
          <mxGeometry width="50" height="50" relative="1" as="geometry">
            <mxPoint x="625" y="732.5" as="sourcePoint" />
            <mxPoint x="711" y="733.5" as="targetPoint" />
          </mxGeometry>
        </mxCell>
        <mxCell id="M-Up_q8v9yrKKLwg8taz-79" value="&lt;font style=&quot;font-size: 9px;&quot;&gt;SQL Server&lt;br style=&quot;font-size: 9px;&quot;&gt;Database&lt;/font&gt;" style="text;html=1;align=center;verticalAlign=middle;whiteSpace=wrap;rounded=0;fontStyle=0;fontSize=9;fontFamily=Courier New;" parent="1" vertex="1">
          <mxGeometry x="762.75" y="877.5" width="84.5" height="25" as="geometry" />
        </mxCell>
        <mxCell id="M-Up_q8v9yrKKLwg8taz-80" value="&lt;font style=&quot;font-size: 9px;&quot;&gt;SQL Server&lt;br style=&quot;font-size: 9px;&quot;&gt;Database&lt;/font&gt;" style="text;html=1;align=center;verticalAlign=middle;whiteSpace=wrap;rounded=0;fontStyle=0;fontSize=9;fontFamily=Courier New;" parent="1" vertex="1">
          <mxGeometry x="762.75" y="495" width="84.5" height="25" as="geometry" />
        </mxCell>
        <mxCell id="M-Up_q8v9yrKKLwg8taz-81" value="&lt;font style=&quot;font-size: 9px;&quot;&gt;SQL Server&lt;br style=&quot;font-size: 9px;&quot;&gt;Database&lt;/font&gt;" style="text;html=1;align=center;verticalAlign=middle;whiteSpace=wrap;rounded=0;fontStyle=0;fontSize=9;fontFamily=Courier New;" parent="1" vertex="1">
          <mxGeometry x="437.75" y="495" width="84.5" height="25" as="geometry" />
        </mxCell>
        <mxCell id="M-Up_q8v9yrKKLwg8taz-85" value="" style="sketch=0;pointerEvents=1;shadow=0;dashed=0;html=1;strokeColor=none;fillColor=#004EBF;aspect=fixed;labelPosition=center;verticalLabelPosition=bottom;verticalAlign=top;align=center;outlineConnect=0;shape=mxgraph.vvd.web_browser;" parent="1" vertex="1">
          <mxGeometry x="-278.28" y="378" width="116.55" height="82.75" as="geometry" />
        </mxCell>
        <mxCell id="M-Up_q8v9yrKKLwg8taz-86" value="" style="image;sketch=0;aspect=fixed;html=1;points=[];align=center;fontSize=12;image=img/lib/mscae/Docker.svg;" parent="1" vertex="1">
          <mxGeometry x="51" y="167.25" width="52.13" height="42.75" as="geometry" />
        </mxCell>
        <mxCell id="UZy7IQeRznYXC_IZHPwW-10" value="" style="rounded=1;whiteSpace=wrap;html=1;fillColor=none;strokeWidth=2;dashed=1;" vertex="1" parent="1">
          <mxGeometry x="355" y="602.5" width="210" height="315" as="geometry" />
        </mxCell>
        <mxCell id="UZy7IQeRznYXC_IZHPwW-11" value="" style="shape=datastore;whiteSpace=wrap;html=1;fillColor=#f8cecc;strokeColor=#b85450;" vertex="1" parent="1">
          <mxGeometry x="450" y="804.5" width="60" height="70" as="geometry" />
        </mxCell>
        <mxCell id="UZy7IQeRznYXC_IZHPwW-12" value="Authentication&lt;br style=&quot;font-size: 14px;&quot;&gt;Microservice" style="text;html=1;align=center;verticalAlign=middle;whiteSpace=wrap;rounded=0;fontStyle=1;fontSize=14;" vertex="1" parent="1">
          <mxGeometry x="409.5" y="622.5" width="141" height="30" as="geometry" />
        </mxCell>
        <mxCell id="UZy7IQeRznYXC_IZHPwW-13" value="" style="shape=process;whiteSpace=wrap;html=1;backgroundOutline=1;fillColor=#f8cecc;strokeColor=#b85450;" vertex="1" parent="1">
          <mxGeometry x="420" y="674.5" width="120" height="50" as="geometry" />
        </mxCell>
        <mxCell id="UZy7IQeRznYXC_IZHPwW-14" value="" style="shape=hexagon;perimeter=hexagonPerimeter2;whiteSpace=wrap;html=1;fixedSize=1;fillColor=#f8cecc;strokeColor=#b85450;" vertex="1" parent="1">
          <mxGeometry x="450" y="674.5" width="60" height="50" as="geometry" />
        </mxCell>
        <mxCell id="UZy7IQeRznYXC_IZHPwW-15" value="" style="endArrow=classic;html=1;rounded=0;strokeWidth=2;fillColor=#f8cecc;strokeColor=#b85450;exitX=0.5;exitY=1;exitDx=0;exitDy=0;entryX=0.5;entryY=0;entryDx=0;entryDy=0;" edge="1" parent="1" source="UZy7IQeRznYXC_IZHPwW-14" target="UZy7IQeRznYXC_IZHPwW-11">
          <mxGeometry width="50" height="50" relative="1" as="geometry">
            <mxPoint x="625" y="804.5" as="sourcePoint" />
            <mxPoint x="675" y="754.5" as="targetPoint" />
          </mxGeometry>
        </mxCell>
        <mxCell id="UZy7IQeRznYXC_IZHPwW-16" value="" style="rounded=0;whiteSpace=wrap;html=1;fillColor=#B5B5B5;strokeColor=none;" vertex="1" parent="1">
          <mxGeometry x="375" y="637.5" width="10" height="250" as="geometry" />
        </mxCell>
        <mxCell id="UZy7IQeRznYXC_IZHPwW-17" value="" style="endArrow=classic;html=1;rounded=0;strokeWidth=2;exitX=1.105;exitY=0.198;exitDx=0;exitDy=0;entryX=0;entryY=0.25;entryDx=0;entryDy=0;exitPerimeter=0;" edge="1" parent="1" source="UZy7IQeRznYXC_IZHPwW-16" target="UZy7IQeRznYXC_IZHPwW-13">
          <mxGeometry width="50" height="50" relative="1" as="geometry">
            <mxPoint x="290" y="497.5" as="sourcePoint" />
            <mxPoint x="376" y="498.5" as="targetPoint" />
          </mxGeometry>
        </mxCell>
        <mxCell id="UZy7IQeRznYXC_IZHPwW-18" value="&lt;font style=&quot;font-size: 9px;&quot;&gt;SQL Server&lt;br style=&quot;font-size: 9px;&quot;&gt;Database&lt;/font&gt;" style="text;html=1;align=center;verticalAlign=middle;whiteSpace=wrap;rounded=0;fontStyle=0;fontSize=9;fontFamily=Courier New;" vertex="1" parent="1">
          <mxGeometry x="437.75" y="882.5" width="84.5" height="25" as="geometry" />
        </mxCell>
        <mxCell id="UZy7IQeRznYXC_IZHPwW-19" value="" style="endArrow=classic;html=1;rounded=0;strokeWidth=2;exitX=0.879;exitY=0.707;exitDx=0;exitDy=0;exitPerimeter=0;" edge="1" parent="1" source="M-Up_q8v9yrKKLwg8taz-52">
          <mxGeometry width="50" height="50" relative="1" as="geometry">
            <mxPoint x="330" y="724" as="sourcePoint" />
            <mxPoint x="375" y="723.5" as="targetPoint" />
          </mxGeometry>
        </mxCell>
        <mxCell id="UZy7IQeRznYXC_IZHPwW-20" value="" style="endArrow=classic;html=1;rounded=0;strokeWidth=2;exitX=1;exitY=0.5;exitDx=0;exitDy=0;entryX=0.083;entryY=0.466;entryDx=0;entryDy=0;entryPerimeter=0;" edge="1" parent="1" source="M-Up_q8v9yrKKLwg8taz-19" target="M-Up_q8v9yrKKLwg8taz-52">
          <mxGeometry width="50" height="50" relative="1" as="geometry">
            <mxPoint x="-91" y="733" as="sourcePoint" />
            <mxPoint x="91" y="606" as="targetPoint" />
          </mxGeometry>
        </mxCell>
        <mxCell id="UZy7IQeRznYXC_IZHPwW-21" value="" style="endArrow=classic;html=1;rounded=0;strokeWidth=2;exitX=1.083;exitY=0.492;exitDx=0;exitDy=0;entryX=0;entryY=0.5;entryDx=0;entryDy=0;exitPerimeter=0;" edge="1" parent="1" source="M-Up_q8v9yrKKLwg8taz-52" target="M-Up_q8v9yrKKLwg8taz-50">
          <mxGeometry width="50" height="50" relative="1" as="geometry">
            <mxPoint x="430" y="623.5" as="sourcePoint" />
            <mxPoint x="612" y="496.5" as="targetPoint" />
            <Array as="points">
              <mxPoint x="620" y="580" />
              <mxPoint x="620" y="375" />
            </Array>
          </mxGeometry>
        </mxCell>
        <mxCell id="UZy7IQeRznYXC_IZHPwW-22" value="" style="endArrow=classic;html=1;rounded=0;strokeWidth=2;exitX=1.083;exitY=0.492;exitDx=0;exitDy=0;entryX=0;entryY=0.5;entryDx=0;entryDy=0;exitPerimeter=0;" edge="1" parent="1">
          <mxGeometry width="50" height="50" relative="1" as="geometry">
            <mxPoint x="326" y="581" as="sourcePoint" />
            <mxPoint x="701" y="745.75" as="targetPoint" />
            <Array as="points">
              <mxPoint x="620" y="581" />
              <mxPoint x="621" y="746.25" />
            </Array>
          </mxGeometry>
        </mxCell>
        <mxCell id="UZy7IQeRznYXC_IZHPwW-23" value="" style="endArrow=classic;html=1;rounded=0;strokeWidth=2;exitX=1.046;exitY=0.147;exitDx=0;exitDy=0;exitPerimeter=0;" edge="1" parent="1">
          <mxGeometry width="50" height="50" relative="1" as="geometry">
            <mxPoint x="111" y="570" as="sourcePoint" />
            <mxPoint x="130" y="570" as="targetPoint" />
          </mxGeometry>
        </mxCell>
      </root>
    </mxGraphModel>
  </diagram>
</mxfile>
